<svg width="67" height="100" viewBox="0 0 67 100" fill="none" xmlns="http://www.w3.org/2000/svg">
<g clip-path="url(#clip0)">
<path d="M16.6733 100C25.8733 100 33.34 92.5333 33.34 83.3333V66.6667H16.6733C7.47333 66.6667 0.00666809 74.1333 0.00666809 83.3333C0.00666809 92.5333 7.47333 100 16.6733 100Z" fill="#0ACF83"/>
<path d="M0.00666809 50C0.00666809 40.8 7.47333 33.3333 16.6733 33.3333H33.34V66.6666H16.6733C7.47333 66.6666 0.00666809 59.1999 0.00666809 50Z" fill="#A259FF"/>
<path d="M0.00666809 16.6667C0.00666809 7.46666 7.47333 0 16.6733 0H33.34V33.3333H16.6733C7.47333 33.3333 0.00666809 25.8667 0.00666809 16.6667Z" fill="#F24E1E"/>
<path d="M33.34 0H50.0067C59.2067 0 66.6734 7.46666 66.6734 16.6667C66.6734 25.8667 59.2067 33.3333 50.0067 33.3333H33.34V0Z" fill="#FF7262"/>
<path d="M66.6734 50C66.6734 59.1999 59.2067 66.6666 50.0067 66.6666C40.8067 66.6666 33.34 59.1999 33.34 50C33.34 40.8 40.8067 33.3333 50.0067 33.3333C59.2067 33.3333 66.6734 40.8 66.6734 50Z" fill="#1ABCFE"/>
</g>
<defs>
<clipPath id="clip0">
<rect width="66.68" height="100" fill="white"/>
</clipPath>
</defs>
</svg>
