<svg width="100" height="100" viewBox="0 0 100 100" fill="none" xmlns="http://www.w3.org/2000/svg">
<g clip-path="url(#clip0)">
<path d="M95.2301 0.683594C94.8342 0.250244 94.2757 0 93.6844 0H6.18441C5.59237 0 5.0339 0.250244 4.63793 0.683594C4.24273 1.12534 4.05047 1.70441 4.11303 2.29187L12.4466 85.6247C12.5298 86.4418 13.0799 87.133 13.8588 87.3955L51.3588 99.8955C51.5755 99.9626 51.7922 100 52.0172 100C52.2675 100 52.5131 99.9542 52.7504 99.8665L86.084 87.3665C86.8256 87.0918 87.3467 86.4128 87.4214 85.6247L95.755 2.29187C95.8176 1.70441 95.6253 1.12534 95.2301 0.683594Z" fill="#FFC107"/>
<path d="M52.0172 100C51.7922 100 51.5755 99.9626 51.3588 99.8955L13.8588 87.3955C13.0799 87.1376 12.5298 86.4418 12.4466 85.6247L4.11303 2.29187C4.05047 1.70441 4.24273 1.12534 4.63793 0.683594C5.0339 0.250244 5.59237 0 6.18441 0H93.6844C94.2757 0 94.8342 0.250244 95.2301 0.683594C95.6253 1.12076 95.8176 1.70441 95.755 2.29187L87.4214 85.6247C87.3421 86.4128 86.8218 87.0918 86.084 87.3665L52.7504 99.8665C52.5131 99.9542 52.2675 100 52.0172 100ZM16.4551 83.8669L51.976 95.7085L83.4046 83.9211L91.3796 4.16641H8.48849L16.4551 83.8669Z" fill="white"/>
<path d="M56.1844 77.0836C55.3131 77.0836 54.5006 76.529 54.2046 75.6584C53.8422 74.5667 54.4342 73.3872 55.5214 73.021L66.8511 69.2459L70.3552 50H56.1844C55.0339 50 54.1008 49.067 54.1008 47.9164V22.9164C54.1008 21.7667 55.0339 20.8336 56.1844 20.8336H77.0172C77.6589 20.8336 78.2677 21.1289 78.6629 21.6332C79.0589 22.1375 79.1962 22.7959 79.0421 23.4207L76.9592 31.7543C76.68 32.8705 75.5631 33.5373 74.4339 33.2711C73.3132 32.9918 72.6379 31.8581 72.9172 30.7457L74.3462 25H58.2672V45.8336H72.8508C73.4673 45.8336 74.0547 46.1045 74.4507 46.5836C74.8467 47.0543 75.013 47.683 74.9008 48.2918L70.7337 71.2082C70.5963 71.9582 70.063 72.5708 69.342 72.8127L56.842 76.9791C56.6216 77.05 56.4049 77.0836 56.1844 77.0836Z" fill="white"/>
<path d="M47.8508 77.0836C47.6593 77.0836 47.467 77.0584 47.2755 76.9997L32.6927 72.8333C31.942 72.6212 31.3797 72.004 31.2218 71.2372L29.1382 60.8208C28.9093 59.6917 29.6425 58.5961 30.7755 58.371C31.8466 58.1337 32.9964 58.8707 33.226 60.0083L35.0594 69.175L45.7672 72.2374V25H22.8508C21.701 25 20.7672 24.067 20.7672 22.9164C20.7672 21.7667 21.701 20.8336 22.8508 20.8336H47.8508C49.0005 20.8336 49.9344 21.7667 49.9344 22.9164V75C49.9344 75.6539 49.63 76.2711 49.1051 76.6625C48.7381 76.9417 48.2964 77.0836 47.8508 77.0836Z" fill="white"/>
</g>
<defs>
<clipPath id="clip0">
<rect width="100" height="100" fill="white"/>
</clipPath>
</defs>
</svg>
