<svg width="100" height="100" viewBox="0 0 100 100" fill="none" xmlns="http://www.w3.org/2000/svg">
<path d="M62.6737 81.25C63.455 82.3784 63.9323 82.2917 64.5399 82.0312C65.1474 81.7708 96.3977 71.2239 97.3524 70.8768C98.307 70.5297 98.0034 70.2258 97.6998 69.7482C97.3961 69.2706 86.9792 55.1216 86.4583 54.2969C85.9375 53.4721 85.6771 53.6458 84.8524 53.9062L51.7253 62.526C51.7253 62.526 61.8925 80.1216 62.6737 81.25Z" fill="#F35045"/>
<path d="M100 66.842V50.28C96.2729 51.2733 91.5591 52.5285 89.6982 53.0235C92.5055 56.7798 96.8945 62.6582 100 66.842Z" fill="#F35045"/>
<path d="M89.6662 32.6255C89.1555 32.7414 77.8508 34.7844 77.1545 34.8771C76.4581 34.9698 76.6901 35.3646 76.9688 35.7591L86.917 49.4086C86.917 49.4086 99.0805 46.3909 99.8235 46.2284C99.8836 46.2151 99.9425 46.2011 100 46.1867V44.3794C97.7891 41.5758 91.7654 33.9427 91.2448 33.2294C90.6183 32.3703 90.1769 32.5096 89.6662 32.6255Z" fill="#F35045"/>
<path d="M18.5375 11.1852C20.9854 11.074 21.2088 11.631 22.2843 13.2258L49.3041 58.3984L83.2781 50.2596C81.3958 47.5914 72.8502 35.476 72.0244 34.3201C71.0961 33.0201 72.0476 32.4164 73.5565 32.1612C75.0653 31.906 88.0643 29.724 89.1786 29.5615C90.2929 29.399 91.1752 29.0044 92.9857 31.1865C93.912 32.3029 97.0528 36.2138 100 39.8797V18.75C100 13.5852 98.1661 9.16875 94.4987 5.5013C90.8312 1.83385 86.4148 0 81.25 0H18.75C13.5851 0 9.16872 1.83385 5.50127 5.5013C3.39763 7.60495 1.90049 9.95599 1.00336 12.5523C7.12758 12.0492 16.8242 11.263 18.5375 11.1852Z" fill="#F35045"/>
<path d="M65.7378 87.3297C62.8729 88.1976 61.5883 88.6284 59.7221 86.0242C58.3245 84.0737 50.7664 70.4604 47.0604 63.7495C40.0469 65.5864 27.2112 68.9364 23.5099 69.8258C19.8971 70.6937 18.3544 68.5278 17.7609 67.1927C17.3448 66.2565 6.75365 43.4216 0 28.7698V81.25C0 86.4151 1.83385 90.831 5.5013 94.4987C9.16875 98.1661 13.5852 100 18.75 100H81.25C86.4148 100 90.8313 98.1661 94.4987 94.4987C98.1661 90.831 100 86.4151 100 81.25V75.0854C92.3279 77.8917 67.668 86.7448 65.7378 87.3297Z" fill="#F35045"/>
<path d="M23.5985 64.5657C24.6138 64.3334 43.6425 59.7792 44.0487 59.6922C44.455 59.6052 44.7159 59.3729 44.2808 58.619C43.8456 57.8651 18.9162 14.8341 18.9162 14.8341C18.686 14.4391 18.7516 14.3076 18.1263 14.3404C17.5688 14.3698 3.46304 15.6284 0.19716 15.9013C0.100806 16.5805 0.0427327 17.2753 0.0172119 17.9836C3.33258 24.7706 22.3604 64.0136 22.4672 64.3334C22.5834 64.6815 22.5831 64.7977 23.5985 64.5657Z" fill="#F35045"/>
</svg>
