<svg width="143" height="30" viewBox="0 0 143 30" fill="none" xmlns="http://www.w3.org/2000/svg">
<path d="M23.92 29L23.884 13.88L16.468 26.336H13.84L6.46 14.204V29H0.988V3.8H5.812L15.244 19.46L24.532 3.8H29.32L29.392 29H23.92ZM44.1908 29.288C42.1508 29.288 40.3148 28.868 38.6828 28.028C37.0748 27.164 35.8148 25.976 34.9028 24.464C33.9908 22.952 33.5348 21.236 33.5348 19.316C33.5348 17.396 33.9908 15.68 34.9028 14.168C35.8148 12.656 37.0748 11.48 38.6828 10.64C40.3148 9.776 42.1508 9.344 44.1908 9.344C46.2308 9.344 48.0548 9.776 49.6628 10.64C51.2708 11.48 52.5308 12.656 53.4428 14.168C54.3548 15.68 54.8108 17.396 54.8108 19.316C54.8108 21.236 54.3548 22.952 53.4428 24.464C52.5308 25.976 51.2708 27.164 49.6628 28.028C48.0548 28.868 46.2308 29.288 44.1908 29.288ZM44.1908 24.68C45.6308 24.68 46.8068 24.2 47.7188 23.24C48.6548 22.256 49.1228 20.948 49.1228 19.316C49.1228 17.684 48.6548 16.388 47.7188 15.428C46.8068 14.444 45.6308 13.952 44.1908 13.952C42.7508 13.952 41.5628 14.444 40.6268 15.428C39.6908 16.388 39.2228 17.684 39.2228 19.316C39.2228 20.948 39.6908 22.256 40.6268 23.24C41.5628 24.2 42.7508 24.68 44.1908 24.68ZM77.5367 19.388C77.5367 19.46 77.5007 19.964 77.4287 20.9H62.7767C63.0407 22.1 63.6647 23.048 64.6487 23.744C65.6327 24.44 66.8567 24.788 68.3207 24.788C69.3287 24.788 70.2167 24.644 70.9847 24.356C71.7767 24.044 72.5087 23.564 73.1807 22.916L76.1687 26.156C74.3447 28.244 71.6807 29.288 68.1767 29.288C65.9927 29.288 64.0607 28.868 62.3807 28.028C60.7007 27.164 59.4047 25.976 58.4927 24.464C57.5807 22.952 57.1247 21.236 57.1247 19.316C57.1247 17.42 57.5687 15.716 58.4567 14.204C59.3687 12.668 60.6047 11.48 62.1647 10.64C63.7487 9.776 65.5127 9.344 67.4567 9.344C69.3527 9.344 71.0687 9.752 72.6047 10.568C74.1407 11.384 75.3407 12.56 76.2047 14.096C77.0927 15.608 77.5367 17.372 77.5367 19.388ZM67.4927 13.592C66.2207 13.592 65.1527 13.952 64.2887 14.672C63.4247 15.392 62.8967 16.376 62.7047 17.624H72.2447C72.0527 16.4 71.5247 15.428 70.6607 14.708C69.7967 13.964 68.7407 13.592 67.4927 13.592ZM93.0476 9.344C95.4476 9.344 97.3796 10.064 98.8436 11.504C100.332 12.944 101.076 15.08 101.076 17.912V29H95.4596V18.776C95.4596 17.24 95.1236 16.1 94.4516 15.356C93.7796 14.588 92.8076 14.204 91.5356 14.204C90.1196 14.204 88.9916 14.648 88.1516 15.536C87.3116 16.4 86.8916 17.696 86.8916 19.424V29H81.2756V2.288H86.8916V11.648C87.6356 10.904 88.5356 10.34 89.5916 9.956C90.6476 9.548 91.7996 9.344 93.0476 9.344ZM122.114 24.68V29H104.834V25.616L114.698 13.952H105.086V9.632H121.79V13.016L111.926 24.68H122.114ZM125.713 9.632H131.329V29H125.713V9.632ZM128.521 6.932C127.489 6.932 126.649 6.632 126.001 6.032C125.353 5.432 125.029 4.688 125.029 3.8C125.029 2.912 125.353 2.168 126.001 1.568C126.649 0.967998 127.489 0.667998 128.521 0.667998C129.553 0.667998 130.393 0.955998 131.041 1.532C131.689 2.108 132.013 2.828 132.013 3.692C132.013 4.628 131.689 5.408 131.041 6.032C130.393 6.632 129.553 6.932 128.521 6.932Z" fill="#585669"/>
<path d="M138.665 29.288C137.681 29.288 136.853 28.952 136.181 28.28C135.509 27.608 135.173 26.768 135.173 25.76C135.173 24.728 135.509 23.9 136.181 23.276C136.853 22.628 137.681 22.304 138.665 22.304C139.649 22.304 140.477 22.628 141.149 23.276C141.821 23.9 142.157 24.728 142.157 25.76C142.157 26.768 141.821 27.608 141.149 28.28C140.477 28.952 139.649 29.288 138.665 29.288Z" fill="#A9DBE0"/>
</svg>
